<svg xmlns="http://www.w3.org/2000/svg" width="90" height="90" viewBox="0 0 90 90">
  <path id="Icon" d="M1214.27,5779.688l3.73-3.729L1200.041,5758l-3.729,3.729,2.625,2.625-9.318,9.318-9.586-9.585-3.729,3.729,5.247,5.247-41.414,41.415,4.414,4.414-8.829,8.829,4.415,4.415L1128,5844.27l3.729,3.729,12.135-12.134,4.415,4.415,8.829-8.829,4.414,4.415,41.415-41.415,5.247,5.247,3.73-3.729-9.586-9.586,9.319-9.318Zm-65.992,53.132-5.1-5.1,5.1-5.1,5.1,5.1Zm13.243-4.415-13.928-13.928,5.324-5.324,3.213,3.213,3.73-3.729-3.214-3.213,3.772-3.772,3.214,3.213,3.73-3.729-3.214-3.213,3.772-3.772,13.928,13.928Zm24.056-24.056-13.928-13.928,3.772-3.772,3.214,3.213,3.73-3.729-3.214-3.213,6.127-6.127,13.928,13.928Zm13.019-21.7-5.25-5.25,9.318-9.318,5.25,5.25Z" transform="translate(-1128 -5758)" fill="#fff"/>
</svg>
