<svg xmlns="http://www.w3.org/2000/svg" width="102.001" height="89" viewBox="0 0 102.001 89">
  <path id="Icon" d="M270.7,5847.519c-28.179-24.155-49.7-41.064-49.7-61.147C221,5771.5,231.537,5759,246.65,5759a28.979,28.979,0,0,1,20.833,8.753,35.158,35.158,0,0,1,4.517,5.559,35.01,35.01,0,0,1,4.517-5.559A28.974,28.974,0,0,1,297.35,5759a24.649,24.649,0,0,1,18.57,8.2,28.515,28.515,0,0,1,7.08,19.175c0,20.054-21.45,36.935-49.695,61.147a2.01,2.01,0,0,1-2.609,0Zm-45.712-61.147c0,17.917,20.406,34.275,47.016,57.05,25.263-21.623,47.015-38.728,47.015-57.05,0-13.357-9.314-23.431-21.664-23.431a24.708,24.708,0,0,0-17.9,7.489,29.405,29.405,0,0,0-5.63,7.686,2,2,0,0,1-1.817,1.163h0a1.994,1.994,0,0,1-1.815-1.163,29.378,29.378,0,0,0-5.628-7.686,24.711,24.711,0,0,0-17.9-7.489C234.3,5762.94,224.984,5773.014,224.984,5786.372Zm41.039,39.166a1.981,1.981,0,0,1-1.992-1.971v-11.034H252.875a1.983,1.983,0,0,1-1.993-1.971v-11.824a1.982,1.982,0,0,1,1.993-1.97h11.156v-11.035a1.981,1.981,0,0,1,1.992-1.97h11.954a1.981,1.981,0,0,1,1.992,1.97v11.035h11.157a1.981,1.981,0,0,1,1.992,1.97v11.824a1.982,1.982,0,0,1-1.992,1.971H279.968v11.034a1.98,1.98,0,0,1-1.992,1.971Zm-11.156-16.947h11.156a1.981,1.981,0,0,1,1.993,1.97V5821.6h7.968V5810.56a1.981,1.981,0,0,1,1.993-1.97h11.156v-7.881H277.977a1.982,1.982,0,0,1-1.993-1.971V5787.7h-7.968v11.034a1.982,1.982,0,0,1-1.993,1.971H254.867Zm47.87-.432a1.954,1.954,0,0,1-.313-2.768c5.882-7.282,8.622-13.325,8.622-19.019a18.113,18.113,0,0,0-2.04-8.341,1.959,1.959,0,0,1,.84-2.659,2,2,0,0,1,2.689.829,21.764,21.764,0,0,1,2.5,10.171c0,6.637-3.016,13.461-9.494,21.479a2.006,2.006,0,0,1-2.8.308Zm.842-37.008a1.99,1.99,0,1,1,1.99,1.97A1.979,1.979,0,0,1,303.58,5771.15Z" transform="translate(-220.999 -5759)" fill="#fff"/>
</svg>
