<svg xmlns="http://www.w3.org/2000/svg" width="75.031" height="88.031" viewBox="0 0 75.031 88.031">
  <path id="Icon" d="M698.419,5805.059a5.587,5.587,0,0,0,2.827,4.386,18.227,18.227,0,0,0,4.274,1.738A45.663,45.663,0,0,1,700.5,5822.3a13.065,13.065,0,0,0-.08,13.566c3.689,6.668,11.836,11.15,20.275,11.15a17.674,17.674,0,0,0,14.506-7.531c5.089-6.947,6.216-17.2,3.015-27.413-2.967-9.473,1-14.525,3.626-16.7a11.931,11.931,0,1,0-3.658-8.594,11.988,11.988,0,0,0,.317,2.695c-4.959,3.633-10.681,11.815-6.677,24.607,2.526,8.065,1.752,16.275-2.024,21.428a11.048,11.048,0,0,1-9.107,4.793c-5.984,0-11.913-3.162-14.416-7.691a6.446,6.446,0,0,1-.1-6.756,52.207,52.207,0,0,0,6.182-14.286,17.79,17.79,0,0,0,5.764-1.932,5.573,5.573,0,0,0,2.894-4.22c7.866-7.128,11.5-19.974,11.708-20.724a3.354,3.354,0,0,0-1.653-3.848c1.088-9.642-2.472-14.5-4.621-16.481a2.424,2.424,0,0,0-1.02-2.448l-3.947-2.586a1.971,1.971,0,0,0-2.893.766l-1.881,3.645a1.779,1.779,0,0,0,1.116,2.623l4.464,1.32a2.909,2.909,0,0,0,3.128-1.2c1.779,1.878,4.34,6.059,3.458,14.035a3.342,3.342,0,0,0-2.607,2.391c-1.071,3.857-4.168,11.827-8.767,16.6a5.547,5.547,0,0,0-4.639.258,6.314,6.314,0,0,1-2.9.8h-.2a6.451,6.451,0,0,1-3.06-.888,5.521,5.521,0,0,0-4.577-.375c-4.5-4.8-7.528-12.6-8.583-16.4a3.352,3.352,0,0,0-2.606-2.389c-.884-7.976,1.677-12.157,3.458-14.035a2.909,2.909,0,0,0,3.127,1.2l4.464-1.32a1.78,1.78,0,0,0,1.116-2.623l-1.879-3.645a1.971,1.971,0,0,0-2.893-.766l-3.952,2.587a2.426,2.426,0,0,0-1.017,2.449c-2.145,1.98-5.709,6.838-4.622,16.481a3.356,3.356,0,0,0-1.653,3.848C687.293,5785.434,690.816,5797.869,698.419,5805.059Zm51.672-22.942a4.663,4.663,0,1,1-4.652,4.663A4.658,4.658,0,0,1,750.091,5782.117Z" transform="translate(-686.968 -5758.984)" fill="#fff"/>
</svg>
